<svg width="28" height="28" viewBox="0 0 28 28" fill="none" xmlns="http://www.w3.org/2000/svg">
<path d="M14.2857 19.8301C14.6071 19.8301 14.8929 19.7087 15.1143 19.4873C15.3357 19.266 15.4571 18.9804 15.4571 18.6591C15.4571 18.3377 15.3357 18.0521 15.1143 17.8308C14.8929 17.6094 14.6071 17.488 14.2857 17.488C13.9643 17.488 13.6786 17.6094 13.4571 17.8308C13.2357 18.0521 13.1143 18.3377 13.1143 18.6591C13.1143 18.9804 13.2357 19.266 13.4571 19.4873C13.6786 19.7087 13.9643 19.8301 14.2857 19.8301ZM14.2857 15.4459C14.6071 15.4459 14.8929 15.3674 15.1143 15.1817C15.3357 15.0175 15.4571 14.8104 15.4571 14.5462V9.20528C15.4571 8.96251 15.3357 8.7483 15.1143 8.5698C14.8929 8.40557 14.6071 8.30561 14.2857 8.30561C13.9643 8.30561 13.6786 8.38415 13.4571 8.5698C13.2357 8.73402 13.1143 8.94109 13.1143 9.20528V14.5534C13.1143 14.7961 13.2357 15.0104 13.4571 15.1889C13.6786 15.3531 13.9643 15.4531 14.2857 15.4531V15.4459ZM10.7071 23.9643C10.4214 23.9643 10.1429 23.9 9.88571 23.8001C9.62857 23.7001 9.4 23.5359 9.20714 23.3431L4.62143 18.7804C4.42857 18.5876 4.27857 18.352 4.16429 18.1021C4.06429 17.8379 4 17.5737 4 17.281V10.7119C4 10.4263 4.06429 10.1478 4.16429 9.89075C4.26429 9.62656 4.42857 9.40521 4.62143 9.21242L9.20714 4.62835C9.4 4.43556 9.63571 4.28561 9.88571 4.17137C10.15 4.05712 10.4143 4 10.7071 4H17.2786C17.5643 4 17.8429 4.06426 18.1 4.16423C18.3643 4.26419 18.5857 4.42842 18.7786 4.62121L23.3786 9.21956C23.5714 9.41235 23.7214 9.64798 23.8357 9.89789C23.9357 10.1621 24 10.4263 24 10.719V17.281C24 17.5666 23.9357 17.8451 23.8357 18.1021C23.7357 18.3592 23.5714 18.5876 23.3786 18.7804L18.7786 23.3788C18.5857 23.5716 18.35 23.7215 18.1 23.8358C17.8357 23.9357 17.5714 24 17.2786 24H10.7071V23.9786V23.9643Z" fill="black"/>
</svg>
