<svg width="28" height="28" viewBox="0 0 28 28" fill="none" xmlns="http://www.w3.org/2000/svg">
<path d="M20.4266 18.4173L19.4148 17.8189C19.1747 17.6693 19.0375 17.4532 19.0032 17.1373C18.9689 16.8215 19.0975 16.5722 19.3376 16.3893L22.8617 13.6382C23.1361 13.4138 23.4191 13.3141 23.7192 13.2974C24.0193 13.2808 24.3194 13.3556 24.6109 13.5301L25.6227 14.1286C25.8628 14.2782 25.9829 14.4943 26 14.7852C26 15.0927 25.9057 15.3254 25.6999 15.5332L22.1758 18.3093C21.9014 18.5337 21.6184 18.6334 21.3183 18.65C21.0182 18.6666 20.7181 18.5918 20.4266 18.4173ZM3.13183 24.9668C2.81458 24.9668 2.54019 24.8587 2.33441 24.6426C2.12004 24.4348 2 24.1772 2 23.8696C2 23.5621 2.11147 23.2961 2.33441 23.0967C2.54877 22.8889 2.81458 22.7725 3.13183 22.7725H8.97106C9.10825 22.7725 9.21115 22.7227 9.30547 22.6395C9.39979 22.5564 9.44266 22.4484 9.44266 22.3154V13.8377L4.9582 11.3775C4.28939 11.0118 3.86066 10.4632 3.65488 9.76505C3.44909 9.06688 3.56056 8.38534 3.94641 7.73704L5.99571 4.32933C6.37299 3.69766 6.91318 3.2904 7.65059 3.09923C8.36227 2.90807 9.04823 2.99118 9.70847 3.3652L21.8156 9.98114C22.2358 10.2139 22.4845 10.5796 22.5188 11.0699C22.5531 11.5603 22.3644 11.9343 21.9614 12.2336L16.6452 16.0485C16.2079 16.3561 15.702 16.514 15.1961 16.5555C14.6645 16.5888 14.1672 16.489 13.6956 16.2148L11.6977 15.1509V22.3569C11.6977 23.0967 11.4234 23.7034 10.9003 24.227C10.3687 24.7423 9.71704 25 8.97106 25H3.13183V24.9668Z" fill="black"/>
</svg>
