<svg width="28" height="28" viewBox="0 0 28 28" fill="none" xmlns="http://www.w3.org/2000/svg">
<g clip-path="url(#clip0_1896_47713)">
<path d="M26.37 13.6717C25.28 12.5917 23.97 12.0517 22.43 12.0517H21.18L18.97 6.02172C18.82 5.62172 18.58 5.31172 18.26 5.09172C17.94 4.87172 17.56 4.76172 17.14 4.76172H15.16C14.95 4.76172 14.77 4.83172 14.63 4.97172C14.49 5.11172 14.41 5.29172 14.41 5.50172C14.41 5.71172 14.48 5.89172 14.63 6.04172C14.77 6.18172 14.95 6.26172 15.16 6.26172H17.23C17.3 6.26172 17.36 6.28172 17.41 6.31172C17.46 6.34172 17.5 6.40172 17.52 6.46172L19.57 12.0417H12.75L11.95 9.83172H12.76C12.97 9.83172 13.15 9.76172 13.29 9.62172C13.43 9.48172 13.51 9.30172 13.51 9.09172C13.51 8.88172 13.44 8.70172 13.29 8.55172C13.15 8.41172 12.97 8.33172 12.76 8.33172H9.07C8.86 8.33172 8.68 8.40172 8.54 8.54172C8.4 8.68172 8.32 8.86172 8.32 9.07172C8.32 9.28172 8.39 9.46172 8.54 9.61172C8.68 9.75172 8.86 9.83172 9.07 9.83172H10.36L12.86 16.8517H11.05C10.86 15.4717 10.25 14.3217 9.21 13.4117C8.17 12.5017 6.96 12.0417 5.57 12.0417C4.02 12.0417 2.7 12.5817 1.61 13.6717C0.520001 14.7617 -0.0299988 16.0817 -0.0299988 17.6317C-0.0299988 19.1817 0.510001 20.5217 1.58 21.6017C2.65 22.6817 3.98 23.2217 5.54 23.2217C6.92 23.2217 8.14 22.7617 9.18 21.8317C10.23 20.9017 10.84 19.7417 11.03 18.3417H16.86C17.07 19.7217 17.7 20.8817 18.74 21.8117C19.78 22.7417 20.99 23.2017 22.39 23.2017C23.95 23.2017 25.27 22.6517 26.34 21.5517C27.42 20.4517 27.96 19.1317 27.96 17.5817C27.96 16.0317 27.42 14.7417 26.33 13.6617L26.37 13.6717ZM6.26 18.1417C6.4 18.2817 6.58 18.3617 6.79 18.3617H9.57C9.34 19.3717 8.86 20.1917 8.12 20.8117C7.39 21.4317 6.53 21.7417 5.56 21.7417C4.42 21.7417 3.45 21.3417 2.67 20.5517C1.88 19.7517 1.49 18.7917 1.49 17.6517C1.49 16.5117 1.89 15.5417 2.68 14.7617C3.47 13.9717 4.44 13.5817 5.59 13.5817C6.54 13.5817 7.39 13.8817 8.12 14.4717C8.86 15.0617 9.34 15.8617 9.57 16.8717H6.79C6.58 16.8717 6.4 16.9417 6.26 17.0817C6.12 17.2217 6.04 17.4017 6.04 17.6117C6.04 17.8217 6.11 18.0017 6.26 18.1517V18.1417ZM17.45 15.1417C17.17 15.7917 16.99 16.3617 16.91 16.8617H14.49L13.29 13.5517H18.65C18.13 13.9617 17.73 14.4917 17.45 15.1417ZM25.32 20.5517C24.68 21.2017 23.92 21.5717 23.05 21.6917C22.86 21.7217 22.66 21.7417 22.47 21.7417C22.46 21.7417 22.45 21.7417 22.43 21.7417C22.43 21.7417 22.43 21.7417 22.42 21.7417C22.42 21.7417 22.41 21.7417 22.4 21.7417C22.15 21.7417 21.91 21.7117 21.67 21.6717C21.64 21.6717 21.61 21.6717 21.58 21.6617C21.37 21.6217 21.16 21.5517 20.96 21.4817C20.91 21.4617 20.85 21.4417 20.8 21.4217C19.33 20.8017 18.31 19.3417 18.31 17.6517C18.31 16.7617 18.6 15.9317 19.08 15.2617C19.13 15.1917 19.18 15.1217 19.24 15.0517C19.47 14.7617 19.75 14.5017 20.07 14.2917C20.1 14.2717 20.13 14.2517 20.16 14.2317C20.2 14.2017 20.24 14.1717 20.29 14.1517H20.32C20.93 13.7817 21.64 13.5717 22.4 13.5717C22.93 13.5717 23.43 13.6717 23.89 13.8517C24 13.8917 24.1 13.9417 24.2 13.9917C24.29 14.0317 24.38 14.0817 24.46 14.1317C24.62 14.2217 24.77 14.3317 24.92 14.4417C24.97 14.4817 25.03 14.5317 25.08 14.5717C25.16 14.6417 25.24 14.6917 25.32 14.7717C25.41 14.8617 25.47 14.9517 25.54 15.0417C25.54 15.0517 25.56 15.0617 25.57 15.0717C26.05 15.6517 26.35 16.3217 26.45 17.0717C26.47 17.2117 26.48 17.3617 26.49 17.5117C26.49 17.5617 26.5 17.6117 26.5 17.6617C26.5 17.7117 26.49 17.7617 26.49 17.8117C26.49 17.9617 26.47 18.1017 26.45 18.2517C26.33 19.1317 25.97 19.9117 25.32 20.5617V20.5517Z" fill="black"/>
</g>
<defs>
<clipPath id="clip0_1896_47713">
<rect width="28" height="28" fill="white"/>
</clipPath>
</defs>
</svg>
