<svg width="28" height="28" viewBox="0 0 28 28" fill="none" xmlns="http://www.w3.org/2000/svg">
<path d="M7.36698 19.7988C7.80423 19.7988 8.17289 19.6187 8.47296 19.2415C8.77303 18.8642 8.92735 18.4184 8.92735 17.8868C8.92735 17.3552 8.77303 16.9094 8.47296 16.5493C8.17289 16.1892 7.79565 15.992 7.34983 15.992C6.90401 15.992 6.54393 16.1721 6.24386 16.5493C5.94379 16.9266 5.78947 17.3724 5.78947 17.904C5.78947 18.4355 5.94379 18.8814 6.24386 19.2415C6.54393 19.6016 6.92116 19.7988 7.36698 19.7988ZM3.43177 25.8433C3.03739 25.8433 2.69445 25.6975 2.4201 25.4232C2.14575 25.1488 2 24.8059 2 24.4115V14.8517C2 14.706 2 14.5773 2.02572 14.4316C2.05144 14.2858 2.07716 14.1572 2.12003 14.0372L4.76065 6.53514C4.85496 6.21791 5.05215 5.97785 5.31793 5.7978C5.5837 5.61775 5.88377 5.52344 6.22671 5.52344H11.285C11.5765 5.52344 11.8166 5.61775 12.0052 5.81495C12.1938 6.01214 12.2967 6.25221 12.2967 6.53514C12.2967 6.81808 12.2024 7.06672 12.0052 7.25534C11.808 7.44396 11.568 7.54685 11.285 7.54685H6.56108L4.84639 12.3996H14.5773C14.7487 12.3996 14.903 12.4339 15.0574 12.5111C15.2117 12.5797 15.3574 12.6825 15.4689 12.8111C16.2405 13.6428 17.1321 14.2858 18.161 14.7402C19.1898 15.1947 20.27 15.4261 21.4189 15.4261C21.8047 15.4261 22.1648 15.4004 22.5248 15.3576C22.8849 15.3147 23.2364 15.2375 23.588 15.1261C23.948 15.0146 24.2738 15.0746 24.5739 15.2804C24.874 15.4862 25.0283 15.7605 25.0283 16.112V24.4029C25.0283 24.7973 24.8825 25.1402 24.6082 25.4146C24.3338 25.689 23.9909 25.8347 23.5965 25.8347C23.2021 25.8347 22.8592 25.689 22.5849 25.4146C22.3105 25.1402 22.1648 24.7973 22.1648 24.4029V23.1254H4.87211V24.4029C4.87211 24.7973 4.72636 25.1402 4.45201 25.4146C4.17766 25.689 3.83472 25.8347 3.44034 25.8347L3.43177 25.8433ZM19.687 19.7988C20.1243 19.7988 20.4929 19.6187 20.793 19.2415C21.0931 18.8642 21.2474 18.4184 21.2474 17.8868C21.2474 17.3552 21.0931 16.9094 20.793 16.5493C20.4929 16.1892 20.1157 15.992 19.6699 15.992C19.2241 15.992 18.864 16.1721 18.5639 16.5493C18.2638 16.9266 18.1095 17.3724 18.1095 17.904C18.1095 18.4355 18.2638 18.8814 18.5639 19.2415C18.864 19.6016 19.2412 19.7988 19.687 19.7988Z" fill="black"/>
<path d="M14.6373 6.94682C14.483 6.77534 14.3458 6.61244 14.2429 6.42382C14.14 6.23519 14.0457 6.038 13.9857 5.82365L13.3684 3.66306C13.3341 3.51731 13.3341 3.39727 13.3684 3.27724C13.4198 3.15721 13.497 3.07147 13.6085 3.01145C13.7199 2.95144 13.8228 2.91714 13.9428 2.91714C14.0629 2.91714 14.1829 2.96858 14.3029 3.04575L17.1407 5.21491L18.804 2.3084C18.8726 2.1798 18.9754 2.09406 19.0783 2.04262C19.1898 1.99117 19.3098 1.99117 19.4298 2.0169C19.5499 2.05119 19.6613 2.11121 19.7556 2.21409C19.8499 2.3084 19.9099 2.42844 19.9357 2.57419L20.5787 6.02942L23.888 5.3178C24.0166 5.2835 24.1538 5.29208 24.2824 5.35209C24.411 5.41211 24.5139 5.49785 24.5739 5.60931C24.6425 5.72934 24.6854 5.8408 24.6939 5.96083C24.6939 6.08086 24.6682 6.2009 24.5825 6.32093L22.6277 9.0131L25.6713 10.9079C25.7999 10.9936 25.9028 11.1051 25.9457 11.208C25.9971 11.328 26.0057 11.448 25.9971 11.5681C25.9714 11.6881 25.9285 11.7996 25.8428 11.8853C25.757 11.971 25.637 12.0139 25.4913 12.0396L22.0962 12.4169L22.1905 12.7341C22.3105 13.1457 22.1905 13.4457 21.8304 13.6429C21.4703 13.8401 21.1445 13.763 20.8445 13.4457L14.6201 6.93824H14.6287L14.6373 6.94682Z" fill="black"/>
</svg>
