<svg width="28" height="28" viewBox="0 0 28 28" fill="none" xmlns="http://www.w3.org/2000/svg">
<path d="M4.41714 23.7611V24.7858C4.41714 25.1303 4.30571 25.4058 4.06571 25.6469C3.82571 25.8881 3.53429 26 3.20857 26C2.88286 26 2.59143 25.8881 2.35143 25.6469C2.11143 25.4058 2 25.1131 2 24.7858V16.8207C2 16.614 2.02571 16.4073 2.06 16.2093C2.09429 16.0112 2.15429 15.8218 2.24 15.6237L4.31429 10.6294C4.42571 10.328 4.63143 10.0955 4.87143 9.92325C5.11143 9.75103 5.42 9.65631 5.72857 9.65631H15.6371C15.9543 9.65631 16.2286 9.75103 16.4943 9.92325C16.76 10.0955 16.94 10.328 17.06 10.6294L19.1429 15.6237C19.2371 15.8218 19.2886 16.0112 19.3229 16.2093C19.3571 16.4073 19.3829 16.614 19.3829 16.8207V24.7858C19.3829 25.1303 19.2714 25.4058 19.0314 25.6469C18.7914 25.8881 18.5 26 18.1743 26C17.8486 26 17.5571 25.8881 17.3171 25.6469C17.0771 25.4058 16.9657 25.1131 16.9657 24.7858V23.7611H4.41714ZM4.41714 15.5979H16.9314L15.6543 11.3785H5.72857L4.43429 15.5979H4.42571H4.41714ZM6.60286 21.1176C7.01429 21.1176 7.38286 20.9453 7.67429 20.6095C7.96571 20.2651 8.11143 19.8517 8.11143 19.3781C8.11143 18.9045 7.96571 18.4654 7.67429 18.1381C7.38286 17.7937 7.03143 17.6129 6.60286 17.6129C6.17429 17.6129 5.82286 17.7851 5.53143 18.1381C5.24 18.4826 5.09429 18.9045 5.09429 19.3781C5.09429 19.8517 5.24 20.2823 5.53143 20.6095C5.82286 20.9367 6.17429 21.1176 6.60286 21.1176ZM14.7629 21.1176C15.1743 21.1176 15.5429 20.9453 15.8343 20.6095C16.1257 20.2737 16.2714 19.8517 16.2714 19.3781C16.2714 18.9045 16.1257 18.4654 15.8343 18.1381C15.5429 17.7937 15.1914 17.6129 14.7629 17.6129C14.3343 17.6129 13.9829 17.7851 13.6914 18.1381C13.4 18.4826 13.2543 18.9045 13.2543 19.3781C13.2543 19.8517 13.4 20.2823 13.6914 20.6095C13.9829 20.9367 14.3343 21.1176 14.7629 21.1176ZM18.8943 8.04605H8.95143C8.66857 8.04605 8.45429 7.95133 8.31714 7.77911C8.18 7.59828 8.11143 7.40022 8.11143 7.19356C8.11143 6.9869 8.18 6.78023 8.31714 6.5994C8.45429 6.41857 8.66857 6.31524 8.95143 6.31524H19.0143C19.3143 6.31524 19.5971 6.40996 19.8543 6.58218C20.1114 6.7544 20.2914 6.9869 20.4114 7.28828L22.4343 12.231C22.52 12.4291 22.58 12.6185 22.6143 12.8165C22.6486 13.0146 22.6657 13.2213 22.6657 13.4279V21.7634C22.6657 22.0045 22.58 22.2112 22.4257 22.3748C22.2714 22.5298 22.0743 22.6331 21.8343 22.6331C21.5943 22.6331 21.3971 22.547 21.2429 22.3748C21.0886 22.2198 21.0029 22.0131 21.0029 21.7634V13.161L18.9286 8.04605H18.9029H18.8943ZM22.22 4.73081H12.3029C12.02 4.73081 11.8057 4.63609 11.6686 4.46387C11.5314 4.28304 11.4629 4.08499 11.4629 3.87832C11.4629 3.67166 11.5314 3.46499 11.6686 3.28416C11.8057 3.10333 12.02 3 12.3029 3H22.3486C22.6657 3 22.9314 3.09472 23.1886 3.26694C23.4457 3.43916 23.6257 3.67166 23.7457 3.97304L25.7686 8.89854C25.8543 9.09659 25.9143 9.28604 25.9486 9.48409C25.9829 9.68214 26 9.88881 26 10.0955V18.4137C26 18.6548 25.9143 18.8615 25.76 19.0251C25.6057 19.1887 25.4086 19.2834 25.1686 19.2834C24.9286 19.2834 24.7314 19.1973 24.5771 19.0251C24.4229 18.8701 24.3371 18.6634 24.3371 18.4137V9.8027L22.2629 4.73081H22.2371H22.22Z" fill="black"/>
</svg>
