<svg width="28" height="28" viewBox="0 0 28 28" fill="none" xmlns="http://www.w3.org/2000/svg">
<path d="M8.61714 20.8778H7.39143V13.4549C7.39143 13.1806 7.15143 12.9492 6.85143 12.9492H5.16286C4.86286 12.9492 4.62286 13.1806 4.62286 13.4549V20.8778H3.38857C3.08857 20.8778 2.84857 21.1092 2.84857 21.3835V22.5321C2.84857 22.8064 3.08857 23.0378 3.38857 23.0378H8.61714C8.91714 23.0378 9.15714 22.8064 9.15714 22.5321V21.3835C9.15714 21.1092 8.91714 20.8778 8.61714 20.8778Z" fill="black"/>
<path d="M24.6029 20.8778H23.3772V13.4549C23.3772 13.1806 23.1372 12.9492 22.8372 12.9492H21.1486C20.8486 12.9492 20.6086 13.1806 20.6086 13.4549V20.8778H19.3829C19.0829 20.8778 18.8429 21.1092 18.8429 21.3835V22.5321C18.8429 22.8064 19.0829 23.0378 19.3829 23.0378H24.6114C24.9114 23.0378 25.1514 22.8064 25.1514 22.5321V21.3835C25.1514 21.1092 24.9114 20.8778 24.6114 20.8778H24.6029Z" fill="black"/>
<path d="M2.32571 7.24857C2.38571 7.24857 2.51429 7.22286 2.61714 7.09429L4.38286 4.57429C4.46857 4.45429 4.47714 4.30857 4.41714 4.18857C4.35714 4.06857 4.23714 4 4.09143 4H2.42C2.18857 4 2 4.18857 2 4.42V6.88857C2 7.12 2.17143 7.24857 2.32571 7.24857Z" fill="black"/>
<path d="M8.77144 11.0831C8.83144 11.2031 8.95144 11.2717 9.10572 11.2717H12.8772C13.0314 11.2717 13.2114 11.186 13.3143 11.0574L18.2772 4.586C18.3629 4.466 18.3886 4.32029 18.3286 4.20029C18.2686 4.08029 18.1486 4.01172 17.9943 4.01172H14.2229C14.0686 4.01172 13.8886 4.09743 13.7857 4.226L8.82287 10.6974C8.73715 10.8174 8.71144 10.9631 8.77144 11.0831Z" fill="black"/>
<path d="M15.7229 11.0831C15.7829 11.2031 15.9029 11.2717 16.0571 11.2717H19.8286C19.9829 11.2717 20.1629 11.186 20.2657 11.0574L25.2457 4.586C25.3314 4.466 25.3571 4.32029 25.2971 4.20029C25.2371 4.08029 25.1171 4.01172 24.9629 4.01172H21.1914C21.0371 4.01172 20.8571 4.09743 20.7543 4.226L15.7914 10.6974C15.7057 10.8174 15.68 10.9631 15.74 11.0831H15.7314H15.7229Z" fill="black"/>
<path d="M6.34571 11.0574L11.3257 4.586C11.4114 4.466 11.4371 4.32029 11.3771 4.20029C11.3171 4.08029 11.1971 4.01172 11.0429 4.01172H7.26286C7.10857 4.01172 6.92857 4.09743 6.82571 4.226L2.12857 10.3117C2.04286 10.4231 2 10.5774 2 10.706V10.8517C2 11.0831 2.18857 11.2717 2.42 11.2717H5.92571C6.08 11.2717 6.26 11.186 6.36286 11.0574H6.35429H6.34571Z" fill="black"/>
<path d="M25.6657 7.34375C25.6057 7.34375 25.4857 7.36946 25.3914 7.48946L22.7429 10.678C22.6486 10.798 22.6228 10.9437 22.6828 11.0637C22.7428 11.1837 22.8629 11.2695 23.0171 11.2695H25.58C25.8114 11.2695 26 11.0809 26 10.8495V7.70375C26 7.47232 25.8286 7.34375 25.6743 7.34375H25.6657Z" fill="black"/>
<path d="M23.3772 17.1132V16.3503C23.3772 15.9132 22.7857 15.5703 22.0657 15.5703H5.94287C5.22287 15.5703 4.63144 15.9217 4.63144 16.3503V17.1132C4.63144 17.5503 5.22287 17.8932 5.94287 17.8932H22.0486C22.7686 17.8932 23.36 17.5417 23.36 17.1132H23.3686H23.3772Z" fill="black"/>
</svg>
