<svg width="28" height="28" viewBox="0 0 28 28" fill="none" xmlns="http://www.w3.org/2000/svg">
<path d="M20.2643 8.43882C20.5069 8.43882 20.7061 8.37888 20.8881 8.25901C21.07 8.1477 21.1567 8.00214 21.1567 7.85658V4.49162C21.1567 4.34606 21.07 4.2005 20.8881 4.08919C20.7061 3.97788 20.5069 3.90938 20.2643 3.90938C20.0217 3.90938 19.8224 3.96932 19.6404 4.08919C19.4585 4.2005 19.3718 4.34606 19.3718 4.49162V7.85658C19.3718 8.00214 19.4585 8.1477 19.6404 8.25901C19.8224 8.37032 20.0217 8.43882 20.2643 8.43882ZM20.2643 11.6839C20.5069 11.6839 20.7061 11.5983 20.8794 11.427C21.0354 11.2729 21.1394 11.0589 21.148 10.8277C21.148 10.5879 21.0614 10.391 20.8881 10.2112C20.7321 10.0314 20.5069 9.94577 20.2643 9.94577C20.0217 9.94577 19.8224 10.0314 19.6404 10.2026C19.4845 10.3568 19.3805 10.5794 19.3805 10.8191C19.3805 11.0589 19.4671 11.2558 19.6404 11.4356C19.7964 11.5897 20.0217 11.6925 20.2643 11.6925V11.6839ZM18.644 20.6229C19.0946 20.6229 19.5018 20.426 19.8397 20.0664C20.1603 19.6896 20.3162 19.2273 20.3162 18.705C20.3162 18.1827 20.1603 17.7203 19.8397 17.3436C19.5191 16.9754 19.1292 16.787 18.644 16.787C18.1588 16.787 17.7863 16.9839 17.4484 17.3436C17.1278 17.7203 16.9718 18.1827 16.9718 18.705C16.9718 19.2273 17.1278 19.6896 17.4484 20.0664C17.769 20.4345 18.1588 20.6229 18.644 20.6229ZM7.05126 20.6229C7.5018 20.6229 7.90903 20.426 8.24693 20.0664C8.56751 19.6896 8.72347 19.2273 8.72347 18.705C8.72347 18.1827 8.56751 17.7203 8.24693 17.3436C7.92635 16.9754 7.53646 16.787 7.05126 16.787C6.56606 16.787 6.1935 16.9839 5.8556 17.3436C5.53502 17.7203 5.37906 18.1827 5.37906 18.705C5.37906 19.2273 5.53502 19.6896 5.8556 20.0664C6.17617 20.4345 6.56606 20.6229 7.05126 20.6229ZM20.2469 13.345C18.6527 13.345 17.3011 12.7884 16.1921 11.6925C15.0744 10.5879 14.5199 9.25223 14.5199 7.66821C14.5199 6.0842 15.083 4.77417 16.1921 3.66108C17.3011 2.55655 18.6614 2 20.2729 2C21.8845 2 23.2188 2.55655 24.3278 3.65252C25.4455 4.75705 26 6.09276 26 7.67677C26 9.26079 25.4368 10.5879 24.3191 11.701C23.2014 12.8056 21.8498 13.3535 20.2469 13.3535V13.345ZM3.35162 25.9829C2.97906 25.9829 2.66715 25.863 2.38989 25.5976C2.1213 25.3321 2 25.0153 2 24.6472V15.7595C2 15.6397 2 15.4941 2.02599 15.3742C2.03466 15.2544 2.07798 15.1174 2.11264 14.9975L4.60794 8.01926C4.69458 7.72815 4.87653 7.49697 5.13646 7.32572C5.39639 7.14591 5.67365 7.06885 5.98556 7.06885H10.7422C11.0108 7.06885 11.2361 7.15448 11.4181 7.35141C11.6 7.53122 11.704 7.75384 11.704 8.01926C11.704 8.28469 11.6173 8.50731 11.4181 8.68712C11.2361 8.86693 11.0108 8.96968 10.7422 8.96968H6.29747L4.68592 13.4905H13.844C13.9913 13.4905 14.1473 13.5248 14.2946 13.5847C14.4419 13.6447 14.5805 13.7389 14.6758 13.8758C15.4036 14.6379 16.2527 15.2458 17.2231 15.6739C18.1935 16.102 19.2159 16.3161 20.2816 16.3161C20.6368 16.3161 20.9834 16.2904 21.33 16.2562C21.6592 16.2048 22.0058 16.1448 22.335 16.0335C22.6643 15.9394 22.9848 15.9822 23.2708 16.1705C23.5567 16.3675 23.704 16.6158 23.704 16.9497V24.6643C23.704 25.0325 23.5827 25.3407 23.3141 25.6147C23.0455 25.8887 22.7249 26 22.3523 26C21.9798 26 21.6679 25.8801 21.3906 25.6147C21.1134 25.3493 21.0007 25.0325 21.0007 24.6643V23.4741H4.70325V24.6643C4.70325 25.0325 4.58195 25.3407 4.31336 25.6147C4.04477 25.8887 3.72419 26 3.35162 26V25.9743V25.9829Z" fill="black"/>
</svg>
