<svg width="28" height="28" viewBox="0 0 28 28" fill="none" xmlns="http://www.w3.org/2000/svg">
<path d="M3.14 25C2.92571 25 2.72857 24.9486 2.56571 24.8458C2.40286 24.7431 2.26571 24.606 2.17143 24.4262C2.07714 24.2549 2.01714 24.075 2 23.8695C2 23.6639 2.03429 23.4755 2.17143 23.2785L12.9886 4.58238C13.1 4.39396 13.2543 4.24837 13.4343 4.1456C13.6143 4.05995 13.7857 4 13.9914 4C14.18 4 14.3771 4.05139 14.5486 4.1456C14.7286 4.23124 14.8657 4.3854 14.9943 4.58238L25.8286 23.2785C25.94 23.467 26 23.6725 26 23.8695C26 24.0665 25.94 24.2549 25.8286 24.4262C25.7429 24.606 25.5971 24.7259 25.4343 24.8458C25.2629 24.94 25.0743 25 24.86 25H3.14857H3.14ZM13.9829 21.9168C14.3343 21.9168 14.6429 21.7883 14.8829 21.5571C15.1229 21.3259 15.2429 21.0175 15.2429 20.6578C15.2429 20.2981 15.1143 19.9984 14.8829 19.7586C14.6514 19.5188 14.3429 19.3989 13.9829 19.3989C13.6229 19.3989 13.3229 19.5273 13.0829 19.7586C12.8429 19.9898 12.7229 20.2981 12.7229 20.6578C12.7229 21.0175 12.8514 21.3173 13.0829 21.5571C13.3143 21.7969 13.6229 21.9168 13.9829 21.9168ZM13.9829 17.1978C14.3343 17.1978 14.6429 17.1122 14.8829 16.9237C15.1229 16.7439 15.2429 16.5126 15.2429 16.2386V10.4833C15.2429 10.2178 15.1143 9.98654 14.8829 9.79812C14.6429 9.61827 14.3429 9.52406 13.9829 9.52406C13.6229 9.52406 13.3229 9.60971 13.0829 9.79812C12.8429 9.97798 12.7229 10.2092 12.7229 10.4833V16.2386C12.7229 16.5041 12.8514 16.7353 13.0829 16.9237C13.3229 17.1036 13.6229 17.1978 13.9829 17.1978Z" fill="black"/>
</svg>
