<svg width="28" height="28" viewBox="0 0 28 28" fill="none" xmlns="http://www.w3.org/2000/svg">
<g clip-path="url(#clip0_1896_47727)">
<path d="M0.01 24.3584V22.5884C0.01 21.9284 0.18 21.3384 0.53 20.7684C0.88 20.2084 1.36 19.7784 1.98 19.4784C3.09 18.9184 4.34 18.4484 5.72 18.0884C7.1 17.7184 8.55 17.5384 10.07 17.5384C11.59 17.5384 13.04 17.7184 14.42 18.0884C15.8 18.4584 17.05 18.9184 18.16 19.4784C18.78 19.7884 19.26 20.2084 19.61 20.7684C19.96 21.3184 20.13 21.9384 20.13 22.5884V24.3584C20.13 24.7084 20 24.9884 19.78 25.2284C19.55 25.4584 19.26 25.5784 18.91 25.5784H1.21C0.86 25.5784 0.58 25.4484 0.35 25.2284C0.12 25.0084 0 24.7084 0 24.3584H0.01ZM10.06 15.3684C8.75 15.3684 7.64 14.9184 6.74 13.9984C5.83 13.0884 5.37 11.9584 5.37 10.5884H5.06C4.89 10.5884 4.74 10.5284 4.64 10.4384C4.54 10.3484 4.49 10.1884 4.49 10.0184C4.49 9.84844 4.55 9.69844 4.64 9.59844C4.75 9.48844 4.89 9.44844 5.06 9.44844H5.37C5.37 8.60844 5.58 7.84844 5.95 7.16844C6.33 6.47844 6.85 5.91844 7.53 5.40844V6.67844C7.53 6.84844 7.59 6.99844 7.68 7.09844C7.77 7.19844 7.93 7.24844 8.1 7.24844C8.27 7.24844 8.42 7.18844 8.52 7.09844C8.63 6.98844 8.67 6.84844 8.67 6.67844V4.88844C8.85 4.81844 9.08 4.75844 9.3 4.73844C9.53 4.69844 9.76 4.66844 10 4.66844C10.24 4.66844 10.48 4.69844 10.7 4.73844C10.92 4.77844 11.14 4.83844 11.33 4.88844V6.67844C11.33 6.84844 11.39 6.99844 11.48 7.09844C11.57 7.19844 11.73 7.24844 11.9 7.24844C12.07 7.24844 12.22 7.18844 12.32 7.09844C12.42 7.00844 12.47 6.84844 12.47 6.67844V5.40844C13.17 5.88844 13.69 6.47844 14.06 7.16844C14.43 7.85844 14.62 8.60844 14.64 9.44844H14.95C15.12 9.44844 15.27 9.50844 15.37 9.59844C15.47 9.68844 15.52 9.84844 15.52 10.0184C15.52 10.1884 15.46 10.3384 15.37 10.4384C15.26 10.5484 15.12 10.5884 14.95 10.5884H14.64C14.64 11.9584 14.19 13.0784 13.27 13.9984C12.35 14.9184 11.24 15.3684 9.95 15.3684H10.02H10.06ZM10.02 14.0984C11.01 14.0984 11.82 13.7784 12.47 13.1384C13.15 12.5084 13.47 11.7184 13.47 10.7884H6.56C6.56 11.7184 6.9 12.5084 7.56 13.1384C8.22 13.7684 9.05 14.0984 10.01 14.0984H10.02ZM20.07 17.4784L19.99 16.9984C19.85 16.9584 19.68 16.8884 19.54 16.8184C19.4 16.7384 19.24 16.6484 19.12 16.5184L18.68 16.6884C18.54 16.7284 18.41 16.7284 18.27 16.6884C18.13 16.6484 18.04 16.5484 17.96 16.4184L17.86 16.2484C17.78 16.1184 17.75 15.9984 17.78 15.8384C17.81 15.6984 17.88 15.5884 17.99 15.4884L18.37 15.1784C18.37 15.0984 18.34 15.0284 18.34 14.9384V14.4784C18.34 14.4784 18.34 14.3384 18.37 14.2384L17.99 13.9284C17.88 13.8284 17.81 13.7184 17.78 13.5784C17.75 13.4384 17.78 13.3084 17.86 13.1684L17.96 12.9984C18.04 12.8584 18.14 12.7684 18.27 12.7284C18.4 12.6884 18.54 12.6884 18.68 12.7284L19.12 12.8984C19.23 12.7884 19.36 12.6984 19.53 12.6184C19.7 12.5384 19.85 12.4784 19.99 12.4384L20.07 11.9584C20.11 11.8184 20.18 11.7084 20.28 11.6084C20.38 11.5084 20.51 11.4684 20.65 11.4684H20.83C20.97 11.4684 21.08 11.5284 21.2 11.6084C21.31 11.7084 21.37 11.8184 21.41 11.9584L21.49 12.4384C21.63 12.4784 21.8 12.5484 21.95 12.6184C22.1 12.6884 22.25 12.7884 22.36 12.8984L22.8 12.7284C22.94 12.6884 23.07 12.6884 23.21 12.7284C23.35 12.7684 23.44 12.8684 23.52 12.9984L23.62 13.1684C23.7 13.2984 23.73 13.4184 23.7 13.5784C23.67 13.7184 23.6 13.8284 23.49 13.9284L23.11 14.2384C23.11 14.3384 23.14 14.4084 23.14 14.4784V14.9384C23.14 15.0184 23.14 15.0884 23.11 15.1784L23.49 15.4884C23.6 15.5884 23.67 15.6984 23.7 15.8384C23.73 15.9784 23.7 16.1084 23.62 16.2484L23.52 16.4184C23.44 16.5584 23.34 16.6484 23.21 16.6884C23.07 16.7284 22.94 16.7284 22.8 16.6884L22.36 16.5184C22.23 16.6484 22.11 16.7284 21.94 16.8184C21.8 16.8984 21.63 16.9584 21.49 16.9984L21.41 17.4784C21.37 17.6184 21.3 17.7284 21.2 17.8284C21.09 17.9284 20.97 17.9684 20.83 17.9684H20.65C20.51 17.9684 20.4 17.9084 20.28 17.8284C20.17 17.7284 20.11 17.6184 20.07 17.4784ZM20.75 15.8284C21.06 15.8284 21.31 15.7184 21.52 15.5084C21.73 15.2984 21.84 15.0284 21.84 14.7384C21.84 14.4484 21.73 14.1784 21.52 13.9684C21.31 13.7584 21.04 13.6484 20.75 13.6484C20.46 13.6484 20.19 13.7584 19.98 13.9684C19.77 14.1784 19.66 14.4484 19.66 14.7384C19.66 15.0284 19.77 15.2984 19.98 15.5084C20.19 15.7184 20.46 15.8284 20.75 15.8284ZM23.21 10.3684L23.11 9.75844C22.88 9.69844 22.66 9.61844 22.43 9.47844C22.2 9.34844 22.01 9.19844 21.87 9.02844L21.24 9.26844C21.09 9.32844 20.9 9.32844 20.75 9.26844C20.6 9.19844 20.45 9.09844 20.36 8.94844L20.22 8.71844C20.12 8.57844 20.09 8.39844 20.12 8.22844C20.15 8.05844 20.25 7.90844 20.39 7.78844L20.91 7.36844C20.87 7.23844 20.84 7.13844 20.83 7.02844V6.34844C20.83 6.23844 20.87 6.13844 20.91 6.00844L20.39 5.58844C20.25 5.45844 20.15 5.31844 20.12 5.14844C20.09 4.97844 20.12 4.80844 20.22 4.65844L20.36 4.42844C20.46 4.28844 20.59 4.17844 20.75 4.10844C20.91 4.03844 21.07 4.03844 21.24 4.10844L21.87 4.34844C22.01 4.17844 22.21 4.00844 22.43 3.89844C22.65 3.78844 22.87 3.68844 23.11 3.61844L23.21 3.00844C23.25 2.83844 23.34 2.66844 23.46 2.56844C23.6 2.43844 23.76 2.39844 23.94 2.39844H24.17C24.34 2.39844 24.51 2.45844 24.65 2.56844C24.79 2.69844 24.88 2.83844 24.9 3.00844L25 3.61844C25.23 3.67844 25.45 3.75844 25.68 3.89844C25.91 4.02844 26.1 4.17844 26.24 4.34844L26.87 4.10844C27.02 4.04844 27.21 4.04844 27.36 4.10844C27.51 4.17844 27.66 4.27844 27.75 4.42844L27.89 4.65844C27.99 4.79844 28.02 4.97844 27.99 5.14844C27.96 5.31844 27.86 5.46844 27.72 5.58844L27.2 6.00844C27.24 6.13844 27.27 6.23844 27.28 6.34844V7.02844C27.28 7.13844 27.24 7.23844 27.2 7.36844L27.72 7.78844C27.86 7.91844 27.96 8.05844 27.99 8.22844C28.02 8.39844 27.99 8.56844 27.89 8.71844L27.75 8.94844C27.65 9.08844 27.52 9.19844 27.36 9.26844C27.21 9.33844 27.04 9.33844 26.87 9.26844L26.24 9.02844C26.1 9.19844 25.9 9.36844 25.68 9.47844C25.46 9.58844 25.24 9.68844 25 9.75844L24.9 10.3684C24.86 10.5384 24.77 10.7084 24.65 10.8084C24.51 10.9384 24.35 10.9784 24.17 10.9784H23.94C23.77 10.9784 23.6 10.9184 23.46 10.8084C23.32 10.6784 23.23 10.5384 23.21 10.3684ZM24.07 8.43844C24.56 8.43844 24.98 8.26844 25.32 7.92844C25.66 7.58844 25.83 7.17844 25.83 6.67844C25.83 6.17844 25.66 5.76844 25.32 5.42844C24.98 5.08844 24.57 4.91844 24.07 4.91844C23.57 4.91844 23.16 5.08844 22.82 5.42844C22.48 5.76844 22.31 6.17844 22.31 6.67844C22.31 7.17844 22.48 7.58844 22.82 7.92844C23.16 8.26844 23.57 8.43844 24.07 8.43844Z" fill="black"/>
</g>
<defs>
<clipPath id="clip0_1896_47727">
<rect width="28" height="28" fill="white"/>
</clipPath>
</defs>
</svg>
